<svg width="203" height="203" viewBox="0 0 203 203" fill="none" xmlns="http://www.w3.org/2000/svg">
<g filter="url(#filter0_d_14_30)">
<circle cx="96.5" cy="96.5" r="77.5" fill="#F44699"/>
</g>
<mask id="path-2-outside-1_14_30" maskUnits="userSpaceOnUse" x="44" y="45" width="105" height="103" fill="black">
<rect fill="white" x="44" y="45" width="105" height="103"/>
<path fill-rule="evenodd" clip-rule="evenodd" d="M96.3605 64.3886H82.4141C80.3686 63.3658 76.0546 60.4836 75.162 57.1364C74.9666 56.4037 74.8054 55.7395 74.6605 55.1421C73.9778 52.3285 73.6555 51 71.8148 51C69.5834 51 65.1206 63.8307 70.4202 70.525C69.3975 71.0828 66.4594 71.8081 62.8891 70.2461C62.0317 69.871 61.195 69.4547 60.3788 69.0486C56.9464 67.3412 53.8782 65.8148 51.1741 68.2936C47.827 71.3618 52.0109 85.3082 58.9841 89.2132C64.5627 92.3372 68.9326 92.5603 70.4202 92.2814C70.5132 94.5128 70.476 99.4778 69.5834 101.486C69.5244 101.619 69.4506 101.78 69.3646 101.969C67.8236 105.342 62.362 117.299 67.9098 125.753C73.7347 134.629 79.8354 141.298 96.3605 141.372V141.373C96.4071 141.373 96.4536 141.373 96.5 141.373C96.5464 141.373 96.5929 141.373 96.6395 141.373V141.372C113.165 141.298 119.265 134.629 125.09 125.753C130.638 117.299 125.176 105.342 123.635 101.969C123.549 101.78 123.476 101.619 123.417 101.486C122.524 99.4778 122.487 94.5128 122.58 92.2814C124.067 92.5603 128.437 92.3372 134.016 89.2132C140.989 85.3082 145.173 71.3618 141.826 68.2936C139.122 65.8148 136.054 67.3411 132.621 69.0486C131.805 69.4547 130.968 69.871 130.111 70.2461C126.541 71.8081 123.603 71.0828 122.58 70.525C127.879 63.8307 123.417 51 121.185 51C119.345 51 119.022 52.3285 118.34 55.1421C118.195 55.7395 118.033 56.4037 117.838 57.1364C116.945 60.4836 112.631 63.3658 110.586 64.3886H96.6395H96.3605Z"/>
</mask>
<path fill-rule="evenodd" clip-rule="evenodd" d="M96.3605 64.3886H82.4141C80.3686 63.3658 76.0546 60.4836 75.162 57.1364C74.9666 56.4037 74.8054 55.7395 74.6605 55.1421C73.9778 52.3285 73.6555 51 71.8148 51C69.5834 51 65.1206 63.8307 70.4202 70.525C69.3975 71.0828 66.4594 71.8081 62.8891 70.2461C62.0317 69.871 61.195 69.4547 60.3788 69.0486C56.9464 67.3412 53.8782 65.8148 51.1741 68.2936C47.827 71.3618 52.0109 85.3082 58.9841 89.2132C64.5627 92.3372 68.9326 92.5603 70.4202 92.2814C70.5132 94.5128 70.476 99.4778 69.5834 101.486C69.5244 101.619 69.4506 101.78 69.3646 101.969C67.8236 105.342 62.362 117.299 67.9098 125.753C73.7347 134.629 79.8354 141.298 96.3605 141.372V141.373C96.4071 141.373 96.4536 141.373 96.5 141.373C96.5464 141.373 96.5929 141.373 96.6395 141.373V141.372C113.165 141.298 119.265 134.629 125.09 125.753C130.638 117.299 125.176 105.342 123.635 101.969C123.549 101.78 123.476 101.619 123.417 101.486C122.524 99.4778 122.487 94.5128 122.58 92.2814C124.067 92.5603 128.437 92.3372 134.016 89.2132C140.989 85.3082 145.173 71.3618 141.826 68.2936C139.122 65.8148 136.054 67.3411 132.621 69.0486C131.805 69.4547 130.968 69.871 130.111 70.2461C126.541 71.8081 123.603 71.0828 122.58 70.525C127.879 63.8307 123.417 51 121.185 51C119.345 51 119.022 52.3285 118.34 55.1421C118.195 55.7395 118.033 56.4037 117.838 57.1364C116.945 60.4836 112.631 63.3658 110.586 64.3886H96.6395H96.3605Z" fill="black"/>
<path d="M82.4141 64.3886L79.7308 69.7551L80.9977 70.3886H82.4141V64.3886ZM75.162 57.1364L69.3646 58.6824L69.3646 58.6824L75.162 57.1364ZM74.6605 55.1421L68.8297 56.5569L68.8297 56.5569L74.6605 55.1421ZM70.4202 70.525L73.2933 75.7924L79.5438 72.383L75.1245 66.8008L70.4202 70.525ZM62.8891 70.2461L65.294 64.7491H65.294L62.8891 70.2461ZM60.3788 69.0486L57.7063 74.4206L57.7063 74.4206L60.3788 69.0486ZM51.1741 68.2936L47.1198 63.8706H47.1198L51.1741 68.2936ZM58.9841 89.2132L56.0525 94.4482H56.0525L58.9841 89.2132ZM70.4202 92.2814L76.415 92.0316L76.1265 85.1069L69.3145 86.3842L70.4202 92.2814ZM69.5834 101.486L75.0663 103.923V103.923L69.5834 101.486ZM69.3646 101.969L63.907 99.4757L63.907 99.4758L69.3646 101.969ZM67.9098 125.753L72.9261 122.461L67.9098 125.753ZM96.3605 141.372H102.361V135.399L96.3874 135.372L96.3605 141.372ZM96.3605 141.373H90.3605V147.373H96.3605V141.373ZM96.5 141.373L96.5138 135.373L96.5 135.373L96.4862 135.373L96.5 141.373ZM96.6395 141.373V147.373H102.639V141.373H96.6395ZM96.6395 141.372L96.6126 135.372L90.6395 135.399V141.372H96.6395ZM125.09 125.753L120.074 122.461L125.09 125.753ZM123.635 101.969L129.093 99.4758L129.093 99.4757L123.635 101.969ZM123.417 101.486L117.934 103.923L117.934 103.923L123.417 101.486ZM122.58 92.2814L123.686 86.3842L116.874 85.1069L116.585 92.0316L122.58 92.2814ZM134.016 89.2132L136.947 94.4482L134.016 89.2132ZM141.826 68.2936L145.88 63.8706L145.88 63.8706L141.826 68.2936ZM132.621 69.0486L135.294 74.4206L135.294 74.4206L132.621 69.0486ZM130.111 70.2461L132.516 75.743V75.743L130.111 70.2461ZM122.58 70.525L117.876 66.8008L113.456 72.383L119.707 75.7924L122.58 70.525ZM118.34 55.1421L112.509 53.7274L112.509 53.7274L118.34 55.1421ZM117.838 57.1364L112.041 55.5904L112.041 55.5904L117.838 57.1364ZM110.586 64.3886V70.3886H112.002L113.269 69.7551L110.586 64.3886ZM82.4141 70.3886H96.3605V58.3886H82.4141V70.3886ZM69.3646 58.6824C70.2712 62.0824 72.6509 64.6129 74.4016 66.1469C76.279 67.7919 78.3082 69.0438 79.7308 69.7551L85.0974 59.022C84.4745 58.7106 83.3239 58.01 82.3098 57.1214C81.8161 56.6888 81.4465 56.2912 81.2015 55.9612C80.9484 55.6203 80.9336 55.4935 80.9594 55.5904L69.3646 58.6824ZM68.8297 56.5569C68.9736 57.1501 69.1495 57.8758 69.3646 58.6824L80.9594 55.5905C80.7837 54.9316 80.6372 54.3288 80.4913 53.7274L68.8297 56.5569ZM71.8148 57C71.5562 57 70.8347 56.9511 69.9996 56.4816C69.1409 55.9989 68.6757 55.3613 68.4797 55.0227C68.3275 54.7599 68.3301 54.6642 68.4365 55.021C68.538 55.362 68.6477 55.8069 68.8297 56.5569L80.4913 53.7274C80.2451 52.7128 79.8016 50.628 78.8642 49.0092C78.2721 47.9868 77.3385 46.8412 75.8804 46.0215C74.4459 45.2149 72.9938 45 71.8148 45V57ZM75.1245 66.8008C74.0694 65.468 73.5798 62.7326 74.1974 59.321C74.4798 57.7609 74.9248 56.5015 75.284 55.7783C75.4757 55.3924 75.5337 55.3801 75.3706 55.5626C75.2859 55.6574 75.0165 55.9461 74.5384 56.2429C74.0669 56.5358 73.1229 57 71.8148 57V45C68.8266 45 66.9822 46.9407 66.4232 47.5662C65.6096 48.4765 64.9942 49.519 64.5366 50.4405C63.597 52.3323 62.8391 54.6989 62.3893 57.1833C61.5426 61.8606 61.4714 68.8877 65.7159 74.2492L75.1245 66.8008ZM60.4842 75.743C65.7476 78.0457 70.6346 77.2425 73.2933 75.7924L67.5471 65.2576C67.8158 65.1111 67.9241 65.0987 67.8213 65.1251C67.7487 65.1437 67.5886 65.1759 67.3544 65.1859C66.9035 65.2051 66.1924 65.1422 65.294 64.7491L60.4842 75.743ZM57.7063 74.4206C58.5014 74.8161 59.4693 75.299 60.4842 75.743L65.294 64.7491C64.5942 64.4429 63.8885 64.0932 63.0512 63.6767L57.7063 74.4206ZM55.2285 72.7165C55.2294 72.7156 55.0475 72.8668 54.7137 72.9495C54.4144 73.0237 54.2665 72.9741 54.4068 73.0002C54.5781 73.032 54.9223 73.1278 55.5309 73.3858C56.1454 73.6463 56.8132 73.9763 57.7063 74.4206L63.0512 63.6767C61.5605 62.9351 59.1283 61.6723 56.5999 61.2023C53.5417 60.6338 50.0912 61.1468 47.1198 63.8706L55.2285 72.7165ZM61.9157 83.9782C60.3052 83.0763 58.1807 80.2611 56.8827 76.4878C56.2801 74.7362 56.0181 73.2196 56.0009 72.2058C55.9772 70.8062 56.3808 71.6602 55.2285 72.7165L47.1198 63.8706C44.2939 66.461 43.9653 70.2089 44.0026 72.4092C44.0464 74.9953 44.6386 77.7847 45.5353 80.3913C47.2358 85.3345 50.6898 91.4451 56.0525 94.4482L61.9157 83.9782ZM69.3145 86.3842C69.5848 86.3335 68.9552 86.4609 67.4594 86.1494C66.0856 85.8633 64.1743 85.2429 61.9157 83.9782L56.0525 94.4482C62.5218 98.0711 68.3203 98.7797 71.5259 98.1786L69.3145 86.3842ZM75.0663 103.923C76.0053 101.81 76.2544 99.0483 76.36 97.3368C76.4841 95.3243 76.4685 93.3152 76.415 92.0316L64.4254 92.5312C64.4649 93.479 64.4771 95.0681 64.3828 96.598C64.3357 97.3614 64.2669 98.0279 64.1819 98.5494C64.084 99.1504 64.0136 99.2448 64.1005 99.0492L75.0663 103.923ZM74.8222 104.462C74.9037 104.283 74.992 104.09 75.0663 103.923L64.1005 99.0492C64.0568 99.1476 63.9975 99.2776 63.907 99.4757L74.8222 104.462ZM72.9261 122.461C71.3954 120.128 71.1346 116.894 71.8696 113.096C72.5871 109.388 74.0654 106.118 74.8222 104.462L63.907 99.4758C63.1229 101.192 61.0999 105.588 60.0882 110.816C59.0942 115.952 58.8765 122.924 62.8936 129.045L72.9261 122.461ZM96.3874 135.372C88.9601 135.339 84.5016 133.838 81.3751 131.821C78.1506 129.741 75.7317 126.736 72.9261 122.461L62.8936 129.045C65.9128 133.646 69.4567 138.413 74.8701 141.905C80.3813 145.46 87.2358 147.331 96.3336 147.372L96.3874 135.372ZM90.3605 141.372V141.373H102.361V141.372H90.3605ZM96.3605 147.373C96.411 147.373 96.4621 147.373 96.5138 147.373L96.4862 135.373C96.445 135.373 96.4032 135.373 96.3605 135.373V147.373ZM96.6395 135.373C96.5968 135.373 96.555 135.373 96.5138 135.373L96.4862 147.373C96.5379 147.373 96.589 147.373 96.6395 147.373V135.373ZM90.6395 141.372V141.373H102.639V141.372H90.6395ZM96.6664 147.372C105.764 147.331 112.619 145.46 118.13 141.905C123.543 138.413 127.087 133.646 130.106 129.045L120.074 122.461C117.268 126.736 114.849 129.741 111.625 131.821C108.498 133.838 104.04 135.339 96.6126 135.372L96.6664 147.372ZM130.106 129.045C134.123 122.924 133.906 115.952 132.912 110.816C131.9 105.588 129.877 101.192 129.093 99.4758L118.178 104.462C118.935 106.118 120.413 109.388 121.13 113.096C121.865 116.894 121.605 120.128 120.074 122.461L130.106 129.045ZM129.093 99.4757C129.002 99.2775 128.943 99.1476 128.899 99.0492L117.934 103.923C118.008 104.09 118.096 104.283 118.178 104.462L129.093 99.4757ZM128.899 99.0492C128.986 99.2448 128.916 99.1504 128.818 98.5494C128.733 98.0279 128.664 97.3614 128.617 96.598C128.523 95.0681 128.535 93.479 128.575 92.5312L116.585 92.0316C116.532 93.3152 116.516 95.3243 116.64 97.3368C116.746 99.0483 116.995 101.81 117.934 103.923L128.899 99.0492ZM121.474 98.1786C124.68 98.7797 130.478 98.0711 136.947 94.4482L131.084 83.9782C128.826 85.2429 126.914 85.8633 125.541 86.1494C124.045 86.4609 123.415 86.3335 123.686 86.3842L121.474 98.1786ZM136.947 94.4482C142.31 91.4451 145.764 85.3345 147.465 80.3913C148.361 77.7847 148.954 74.9953 148.997 72.4092C149.035 70.2089 148.706 66.461 145.88 63.8706L137.772 72.7165C136.619 71.6602 137.023 70.8062 136.999 72.2058C136.982 73.2196 136.72 74.7362 136.117 76.4878C134.819 80.2611 132.695 83.0763 131.084 83.9782L136.947 94.4482ZM145.88 63.8706C142.909 61.1468 139.458 60.6338 136.4 61.2023C133.872 61.6723 131.439 62.9351 129.949 63.6767L135.294 74.4206C136.187 73.9763 136.855 73.6463 137.469 73.3858C138.078 73.1278 138.422 73.032 138.593 73.0002C138.734 72.9741 138.586 73.0237 138.286 72.9495C137.952 72.8668 137.771 72.7156 137.772 72.7165L145.88 63.8706ZM129.949 63.6767C129.112 64.0932 128.406 64.4429 127.706 64.7491L132.516 75.743C133.531 75.299 134.499 74.8162 135.294 74.4206L129.949 63.6767ZM127.706 64.7491C126.808 65.1422 126.096 65.2051 125.646 65.1859C125.411 65.1759 125.251 65.1437 125.179 65.1251C125.076 65.0987 125.184 65.1111 125.453 65.2576L119.707 75.7924C122.365 77.2425 127.252 78.0457 132.516 75.743L127.706 64.7491ZM127.284 74.2492C131.529 68.8877 131.457 61.8606 130.611 57.1833C130.161 54.6989 129.403 52.3323 128.463 50.4405C128.006 49.519 127.39 48.4765 126.577 47.5662C126.018 46.9406 124.173 45 121.185 45V57C119.877 57 118.933 56.5358 118.462 56.2429C117.983 55.9461 117.714 55.6574 117.629 55.5626C117.466 55.3801 117.524 55.3924 117.716 55.7783C118.075 56.5015 118.52 57.7609 118.803 59.321C119.42 62.7326 118.931 65.468 117.876 66.8008L127.284 74.2492ZM121.185 45C120.006 45 118.554 45.2149 117.12 46.0215C115.661 46.8412 114.728 47.9868 114.136 49.0092C113.198 50.628 112.755 52.7127 112.509 53.7274L124.17 56.5569C124.352 55.8069 124.462 55.362 124.564 55.021C124.67 54.6641 124.673 54.7599 124.52 55.0227C124.324 55.3613 123.859 55.9989 123 56.4816C122.165 56.9511 121.444 57 121.185 57V45ZM112.509 53.7274C112.363 54.3288 112.216 54.9316 112.041 55.5904L123.635 58.6824C123.851 57.8758 124.026 57.1501 124.17 56.5568L112.509 53.7274ZM112.041 55.5904C112.066 55.4935 112.052 55.6203 111.798 55.9612C111.554 56.2912 111.184 56.6888 110.69 57.1214C109.676 58.01 108.525 58.7106 107.903 59.022L113.269 69.7551C114.692 69.0438 116.721 67.7919 118.598 66.1469C120.349 64.6129 122.729 62.0824 123.635 58.6824L112.041 55.5904ZM110.586 58.3886H96.6395V70.3886H110.586V58.3886ZM96.6395 58.3886H96.3605V70.3886H96.6395V58.3886Z" fill="black" mask="url(#path-2-outside-1_14_30)"/>
<mask id="mask0_14_30" style="mask-type:alpha" maskUnits="userSpaceOnUse" x="50" y="51" width="93" height="91">
<path d="M82.4141 64.3886C80.3686 63.3658 76.0546 60.4836 75.162 57.1364C74.9666 56.4037 74.8054 55.7395 74.6605 55.1421C73.9778 52.3285 73.6555 51 71.8148 51C69.5834 51 65.1206 63.8307 70.4202 70.525C69.3975 71.0828 66.4594 71.8081 62.8891 70.2461C62.0317 69.871 61.195 69.4547 60.3788 69.0486C56.9464 67.3412 53.8782 65.8148 51.1741 68.2936C47.827 71.3618 52.0109 85.3082 58.9841 89.2132C64.5627 92.3372 68.9326 92.5603 70.4202 92.2814C70.5132 94.5128 70.476 99.4778 69.5834 101.486C69.5244 101.619 69.4506 101.78 69.3646 101.969C67.8236 105.342 62.362 117.299 67.9098 125.753C73.7347 134.629 79.8353 141.298 96.3605 141.372C96.4071 141.372 96.4536 141.373 96.5 141.373C96.5464 141.373 96.5929 141.373 96.6395 141.373C113.165 141.299 119.265 134.629 125.09 125.753C130.638 117.299 125.176 105.342 123.635 101.969C123.549 101.78 123.476 101.619 123.417 101.486C122.524 99.4778 122.487 94.5128 122.58 92.2814C124.067 92.5603 128.437 92.3372 134.016 89.2132C140.989 85.3082 145.173 71.3618 141.826 68.2936C139.122 65.8148 136.054 67.3412 132.621 69.0486C131.805 69.4547 130.968 69.871 130.111 70.2461C126.541 71.8081 123.603 71.0828 122.58 70.525C127.879 63.8307 123.417 51 121.185 51C119.345 51 119.022 52.3285 118.34 55.1421C118.195 55.7395 118.033 56.4037 117.838 57.1364C116.945 60.4836 112.631 63.3658 110.586 64.3886H82.4141Z" fill="#3B3737"/>
</mask>
<g mask="url(#mask0_14_30)">
<ellipse cx="96.0232" cy="192.696" rx="52.7175" ry="89.2571" fill="white"/>
<path d="M115 77C103.5 75.9385 89.2359 71.1758 90.1657 65.2254L93.2339 42.3532L131.447 28.6857L156.272 79.1718C146.509 85.5871 126.928 97.1348 126.705 92.0025C126.482 86.8702 121.043 77.5579 115 77Z" fill="white"/>
<path d="M77.335 69.1304C79.5118 67.8242 81.5117 65.5271 82.2988 64.466L79.8453 43.7479L55.0207 58.5311L70.3618 70.525C71.7564 70.618 75.1035 70.4692 77.335 69.1304Z" fill="#BBBBBB"/>
<path d="M115.827 69.1304C113.65 67.8242 111.65 65.5271 110.863 64.466L113.317 43.7479L138.141 58.5311L122.8 70.525C121.406 70.618 118.059 70.4692 115.827 69.1304Z" fill="#BBBBBB"/>
</g>
<path d="M86.8185 116.827L89.3289 119.337" stroke="black" stroke-width="5" stroke-linecap="round"/>
<path d="M106.065 116.827L103.554 119.337" stroke="black" stroke-width="5" stroke-linecap="round"/>
<circle cx="82.5" cy="94.5" r="5.5" fill="black" stroke="white" stroke-width="4"/>
<circle cx="111.5" cy="94.5" r="5.5" fill="black" stroke="white" stroke-width="4"/>
<defs>
<filter id="filter0_d_14_30" x="0" y="0" width="203" height="203" filterUnits="userSpaceOnUse" color-interpolation-filters="sRGB">
<feFlood flood-opacity="0" result="BackgroundImageFix"/>
<feColorMatrix in="SourceAlpha" type="matrix" values="0 0 0 0 0 0 0 0 0 0 0 0 0 0 0 0 0 0 127 0" result="hardAlpha"/>
<feMorphology radius="4" operator="dilate" in="SourceAlpha" result="effect1_dropShadow_14_30"/>
<feOffset dx="5" dy="5"/>
<feGaussianBlur stdDeviation="10"/>
<feComposite in2="hardAlpha" operator="out"/>
<feColorMatrix type="matrix" values="0 0 0 0 0.94475 0 0 0 0 0.237534 0 0 0 0 0.576998 0 0 0 0.4 0"/>
<feBlend mode="normal" in2="BackgroundImageFix" result="effect1_dropShadow_14_30"/>
<feBlend mode="normal" in="SourceGraphic" in2="effect1_dropShadow_14_30" result="shape"/>
</filter>
</defs>
</svg>
